<svg width="45" height="45" viewBox="0 0 45 45" fill="none" xmlns="http://www.w3.org/2000/svg">
<path d="M37.5 16.875H20.625C18.5539 16.875 16.875 18.5539 16.875 20.625V37.5C16.875 39.5711 18.5539 41.25 20.625 41.25H37.5C39.5711 41.25 41.25 39.5711 41.25 37.5V20.625C41.25 18.5539 39.5711 16.875 37.5 16.875Z" stroke="black" stroke-width="2" stroke-linecap="round" stroke-linejoin="round"/>
<path d="M9.375 28.125H7.5C6.50544 28.125 5.55161 27.7299 4.84835 27.0266C4.14509 26.3234 3.75 25.3696 3.75 24.375V7.5C3.75 6.50544 4.14509 5.55161 4.84835 4.84835C5.55161 4.14509 6.50544 3.75 7.5 3.75H24.375C25.3696 3.75 26.3234 4.14509 27.0266 4.84835C27.7299 5.55161 28.125 6.50544 28.125 7.5V9.375" stroke="black" stroke-width="2" stroke-linecap="round" stroke-linejoin="round"/>
</svg>
