<svg width="45" height="45" viewBox="0 0 45 45" fill="none" xmlns="http://www.w3.org/2000/svg">
<path d="M31.875 5.62502C32.3675 5.13256 32.9521 4.74192 33.5955 4.47541C34.2389 4.20889 34.9286 4.07172 35.625 4.07172C36.3214 4.07172 37.0111 4.20889 37.6545 4.47541C38.2979 4.74192 38.8825 5.13256 39.375 5.62502C39.8675 6.11747 40.2581 6.70211 40.5246 7.34553C40.7911 7.98896 40.9283 8.67858 40.9283 9.37502C40.9283 10.0715 40.7911 10.7611 40.5246 11.4045C40.2581 12.0479 39.8675 12.6326 39.375 13.125L14.0625 38.4375L3.75 41.25L6.5625 30.9375L31.875 5.62502Z" stroke="black" stroke-width="2" stroke-linecap="round" stroke-linejoin="round"/>
</svg>
